# xmcd CD database file
#
# Track frame offsets:
#	182
#	14830
#	29965
#	45327
#	60052
#	75985
#	88972
#	102297
#	114937
#	127805
#	141985
#	156082
#	168805
#	180747
#	193317
#	206202
#	218842
#	232042
#	244162
#	257152
#
# Disc length: 3604 seconds
#
# Revision: 2
# Processed by: cddbd v1.5.2PL0 Copyright (c) Steve Scherf et al.
# Submitted via: CDex 1.99.1
#
DISCID=190e1214
DTITLE=James "Yank" Rachell - James "Yank" Rachell Completed Works, Vol. 2 1938 -1941
DYEAR=1998
DGENRE=Blues
TTITLE0=Get Your Head Trimmed Down ("Jackson" Joe Williams vcl)
TTITLE1=Peach Orchard Mama ("Jackson" Joe Williams vcl)
TTITLE2=Haven't Seen No Whiskey ("Jackson" Joe Williams vcl)
TTITLE3=Goin' up the Mountain ("Jackson" Joe Williams vcl)
TTITLE4=Hobo Blues
TTITLE5=It Seems Like a Dream 
TTITLE6=Army Man Blues
TTITLE7=38 Pistol Blues 
TTITLE8=Worried Blues
TTITLE9=Biscuit Baking Woman
TTITLE10=Insurance Man Blues
TTITLE11=Up North Blues
TTITLE12=Yellow Yam Blues
TTITLE13=Tappin' That Thing
TTITLE14=Rainy Day Blues
TTITLE15=Peach Tree Blues
TTITLE16=She Loves Who She Pleases 
TTITLE17=Bye-Bye Blues 
TTITLE18=Loudella Blues 
TTITLE19=Katy Lee Blues 
EXTD=YEAR: 1998
EXTT0=
EXTT1=
EXTT2=
EXTT3=
EXTT4=
EXTT5=
EXTT6=
EXTT7=
EXTT8=
EXTT9=
EXTT10=
EXTT11=
EXTT12=
EXTT13=
EXTT14=
EXTT15=
EXTT16=
EXTT17=
EXTT18=
EXTT19=
PLAYORDER=
